<mxfile host="app.diagrams.net" agent="Mozilla/5.0 (Windows NT 10.0; Win64; x64) AppleWebKit/537.36 (KHTML, like Gecko) Chrome/130.0.0.0 Safari/537.36" version="24.8.1">
  <diagram name="Page-1" id="FMwh0Kzmrbzqmm0DmHUv">
    <mxGraphModel dx="2580" dy="940" grid="1" gridSize="10" guides="1" tooltips="1" connect="1" arrows="1" fold="1" page="1" pageScale="1" pageWidth="827" pageHeight="1169" math="0" shadow="0">
      <root>
        <mxCell id="0" />
        <mxCell id="1" parent="0" />
        <mxCell id="WVL8FD9VB9Q3fjMfFtZ8-1" value="Sim" style="swimlane;fontStyle=1;align=center;verticalAlign=top;childLayout=stackLayout;horizontal=1;startSize=26;horizontalStack=0;resizeParent=1;resizeParentMax=0;resizeLast=0;collapsible=1;marginBottom=0;whiteSpace=wrap;html=1;" vertex="1" parent="1">
          <mxGeometry x="50" y="435" width="210" height="150" as="geometry" />
        </mxCell>
        <mxCell id="WVL8FD9VB9Q3fjMfFtZ8-2" value="-name: String&lt;div&gt;-location: Location&lt;/div&gt;&lt;div&gt;-car: Car&lt;/div&gt;" style="text;strokeColor=none;fillColor=none;align=left;verticalAlign=top;spacingLeft=4;spacingRight=4;overflow=hidden;rotatable=0;points=[[0,0.5],[1,0.5]];portConstraint=eastwest;whiteSpace=wrap;html=1;" vertex="1" parent="WVL8FD9VB9Q3fjMfFtZ8-1">
          <mxGeometry y="26" width="210" height="54" as="geometry" />
        </mxCell>
        <mxCell id="WVL8FD9VB9Q3fjMfFtZ8-3" value="" style="line;strokeWidth=1;fillColor=none;align=left;verticalAlign=middle;spacingTop=-1;spacingLeft=3;spacingRight=3;rotatable=0;labelPosition=right;points=[];portConstraint=eastwest;strokeColor=inherit;" vertex="1" parent="WVL8FD9VB9Q3fjMfFtZ8-1">
          <mxGeometry y="80" width="210" height="8" as="geometry" />
        </mxCell>
        <mxCell id="WVL8FD9VB9Q3fjMfFtZ8-4" value="+ goForADrive(destination: Location)&lt;div&gt;+selectedCar(car: Car)&lt;/div&gt;" style="text;strokeColor=none;fillColor=none;align=left;verticalAlign=top;spacingLeft=4;spacingRight=4;overflow=hidden;rotatable=0;points=[[0,0.5],[1,0.5]];portConstraint=eastwest;whiteSpace=wrap;html=1;" vertex="1" parent="WVL8FD9VB9Q3fjMfFtZ8-1">
          <mxGeometry y="88" width="210" height="62" as="geometry" />
        </mxCell>
        <mxCell id="WVL8FD9VB9Q3fjMfFtZ8-11" value="Driving Mode" style="swimlane;fontStyle=1;align=center;verticalAlign=top;childLayout=stackLayout;horizontal=1;startSize=26;horizontalStack=0;resizeParent=1;resizeParentMax=0;resizeLast=0;collapsible=1;marginBottom=0;whiteSpace=wrap;html=1;" vertex="1" parent="1">
          <mxGeometry x="1145" y="720" width="280" height="110" as="geometry" />
        </mxCell>
        <mxCell id="WVL8FD9VB9Q3fjMfFtZ8-12" value="-mode: String" style="text;strokeColor=none;fillColor=none;align=left;verticalAlign=top;spacingLeft=4;spacingRight=4;overflow=hidden;rotatable=0;points=[[0,0.5],[1,0.5]];portConstraint=eastwest;whiteSpace=wrap;html=1;" vertex="1" parent="WVL8FD9VB9Q3fjMfFtZ8-11">
          <mxGeometry y="26" width="280" height="24" as="geometry" />
        </mxCell>
        <mxCell id="WVL8FD9VB9Q3fjMfFtZ8-13" value="" style="line;strokeWidth=1;fillColor=none;align=left;verticalAlign=middle;spacingTop=-1;spacingLeft=3;spacingRight=3;rotatable=0;labelPosition=right;points=[];portConstraint=eastwest;strokeColor=inherit;" vertex="1" parent="WVL8FD9VB9Q3fjMfFtZ8-11">
          <mxGeometry y="50" width="280" height="8" as="geometry" />
        </mxCell>
        <mxCell id="WVL8FD9VB9Q3fjMfFtZ8-14" value="+startDriving(Sim sim , Car car, Route route): void" style="text;strokeColor=none;fillColor=none;align=left;verticalAlign=top;spacingLeft=4;spacingRight=4;overflow=hidden;rotatable=0;points=[[0,0.5],[1,0.5]];portConstraint=eastwest;whiteSpace=wrap;html=1;" vertex="1" parent="WVL8FD9VB9Q3fjMfFtZ8-11">
          <mxGeometry y="58" width="280" height="52" as="geometry" />
        </mxCell>
        <mxCell id="WVL8FD9VB9Q3fjMfFtZ8-15" value="AutoDrive" style="swimlane;fontStyle=1;align=center;verticalAlign=top;childLayout=stackLayout;horizontal=1;startSize=26;horizontalStack=0;resizeParent=1;resizeParentMax=0;resizeLast=0;collapsible=1;marginBottom=0;whiteSpace=wrap;html=1;" vertex="1" parent="1">
          <mxGeometry x="895" y="940" width="210" height="150" as="geometry" />
        </mxCell>
        <mxCell id="WVL8FD9VB9Q3fjMfFtZ8-16" value="-name: String&lt;div&gt;-location: Location&lt;/div&gt;&lt;div&gt;-car: Car&lt;/div&gt;" style="text;strokeColor=none;fillColor=none;align=left;verticalAlign=top;spacingLeft=4;spacingRight=4;overflow=hidden;rotatable=0;points=[[0,0.5],[1,0.5]];portConstraint=eastwest;whiteSpace=wrap;html=1;" vertex="1" parent="WVL8FD9VB9Q3fjMfFtZ8-15">
          <mxGeometry y="26" width="210" height="54" as="geometry" />
        </mxCell>
        <mxCell id="WVL8FD9VB9Q3fjMfFtZ8-17" value="" style="line;strokeWidth=1;fillColor=none;align=left;verticalAlign=middle;spacingTop=-1;spacingLeft=3;spacingRight=3;rotatable=0;labelPosition=right;points=[];portConstraint=eastwest;strokeColor=inherit;" vertex="1" parent="WVL8FD9VB9Q3fjMfFtZ8-15">
          <mxGeometry y="80" width="210" height="8" as="geometry" />
        </mxCell>
        <mxCell id="WVL8FD9VB9Q3fjMfFtZ8-18" value="+ goForADrive(destination: Location)&lt;div&gt;+selectedCar(car: Car)&lt;/div&gt;" style="text;strokeColor=none;fillColor=none;align=left;verticalAlign=top;spacingLeft=4;spacingRight=4;overflow=hidden;rotatable=0;points=[[0,0.5],[1,0.5]];portConstraint=eastwest;whiteSpace=wrap;html=1;" vertex="1" parent="WVL8FD9VB9Q3fjMfFtZ8-15">
          <mxGeometry y="88" width="210" height="62" as="geometry" />
        </mxCell>
        <mxCell id="WVL8FD9VB9Q3fjMfFtZ8-22" value="" style="endArrow=diamondThin;endFill=1;endSize=24;html=1;rounded=0;exitX=0.437;exitY=-0.009;exitDx=0;exitDy=0;exitPerimeter=0;entryX=0.496;entryY=1.082;entryDx=0;entryDy=0;entryPerimeter=0;" edge="1" parent="1" source="WVL8FD9VB9Q3fjMfFtZ8-15" target="WVL8FD9VB9Q3fjMfFtZ8-14">
          <mxGeometry width="160" relative="1" as="geometry">
            <mxPoint x="985" y="880" as="sourcePoint" />
            <mxPoint x="1265" y="880" as="targetPoint" />
            <Array as="points">
              <mxPoint x="985" y="880" />
              <mxPoint x="1285" y="880" />
            </Array>
          </mxGeometry>
        </mxCell>
        <mxCell id="WVL8FD9VB9Q3fjMfFtZ8-23" value="AutoDrive" style="swimlane;fontStyle=1;align=center;verticalAlign=top;childLayout=stackLayout;horizontal=1;startSize=26;horizontalStack=0;resizeParent=1;resizeParentMax=0;resizeLast=0;collapsible=1;marginBottom=0;whiteSpace=wrap;html=1;" vertex="1" parent="1">
          <mxGeometry x="1425" y="940" width="210" height="150" as="geometry" />
        </mxCell>
        <mxCell id="WVL8FD9VB9Q3fjMfFtZ8-24" value="-name: String&lt;div&gt;-location: Location&lt;/div&gt;&lt;div&gt;-car: Car&lt;/div&gt;" style="text;strokeColor=none;fillColor=none;align=left;verticalAlign=top;spacingLeft=4;spacingRight=4;overflow=hidden;rotatable=0;points=[[0,0.5],[1,0.5]];portConstraint=eastwest;whiteSpace=wrap;html=1;" vertex="1" parent="WVL8FD9VB9Q3fjMfFtZ8-23">
          <mxGeometry y="26" width="210" height="54" as="geometry" />
        </mxCell>
        <mxCell id="WVL8FD9VB9Q3fjMfFtZ8-25" value="" style="line;strokeWidth=1;fillColor=none;align=left;verticalAlign=middle;spacingTop=-1;spacingLeft=3;spacingRight=3;rotatable=0;labelPosition=right;points=[];portConstraint=eastwest;strokeColor=inherit;" vertex="1" parent="WVL8FD9VB9Q3fjMfFtZ8-23">
          <mxGeometry y="80" width="210" height="8" as="geometry" />
        </mxCell>
        <mxCell id="WVL8FD9VB9Q3fjMfFtZ8-26" value="+ goForADrive(destination: Location)&lt;div&gt;+selectedCar(car: Car)&lt;/div&gt;" style="text;strokeColor=none;fillColor=none;align=left;verticalAlign=top;spacingLeft=4;spacingRight=4;overflow=hidden;rotatable=0;points=[[0,0.5],[1,0.5]];portConstraint=eastwest;whiteSpace=wrap;html=1;" vertex="1" parent="WVL8FD9VB9Q3fjMfFtZ8-23">
          <mxGeometry y="88" width="210" height="62" as="geometry" />
        </mxCell>
        <mxCell id="WVL8FD9VB9Q3fjMfFtZ8-29" value="" style="endArrow=diamondThin;endFill=1;endSize=24;html=1;rounded=0;exitX=0.437;exitY=-0.009;exitDx=0;exitDy=0;exitPerimeter=0;entryX=0.493;entryY=1.109;entryDx=0;entryDy=0;entryPerimeter=0;" edge="1" parent="1" target="WVL8FD9VB9Q3fjMfFtZ8-14">
          <mxGeometry width="160" relative="1" as="geometry">
            <mxPoint x="1517" y="940" as="sourcePoint" />
            <mxPoint x="1815" y="832" as="targetPoint" />
            <Array as="points">
              <mxPoint x="1515" y="881" />
              <mxPoint x="1285" y="880" />
            </Array>
          </mxGeometry>
        </mxCell>
        <mxCell id="WVL8FD9VB9Q3fjMfFtZ8-31" value="Car" style="swimlane;fontStyle=1;align=center;verticalAlign=top;childLayout=stackLayout;horizontal=1;startSize=26;horizontalStack=0;resizeParent=1;resizeParentMax=0;resizeLast=0;collapsible=1;marginBottom=0;whiteSpace=wrap;html=1;" vertex="1" parent="1">
          <mxGeometry x="420" y="435" width="210" height="160" as="geometry" />
        </mxCell>
        <mxCell id="WVL8FD9VB9Q3fjMfFtZ8-32" value="- model: String&amp;nbsp;&lt;div&gt;- color: String&amp;nbsp;&lt;/div&gt;&lt;div&gt;&lt;span style=&quot;background-color: initial;&quot;&gt;- isAvailable: Boolean&lt;/span&gt;&lt;/div&gt;&lt;div&gt;- fuelLevel: Float&lt;/div&gt;" style="text;strokeColor=none;fillColor=none;align=left;verticalAlign=top;spacingLeft=4;spacingRight=4;overflow=hidden;rotatable=0;points=[[0,0.5],[1,0.5]];portConstraint=eastwest;whiteSpace=wrap;html=1;" vertex="1" parent="WVL8FD9VB9Q3fjMfFtZ8-31">
          <mxGeometry y="26" width="210" height="74" as="geometry" />
        </mxCell>
        <mxCell id="WVL8FD9VB9Q3fjMfFtZ8-33" value="" style="line;strokeWidth=1;fillColor=none;align=left;verticalAlign=middle;spacingTop=-1;spacingLeft=3;spacingRight=3;rotatable=0;labelPosition=right;points=[];portConstraint=eastwest;strokeColor=inherit;" vertex="1" parent="WVL8FD9VB9Q3fjMfFtZ8-31">
          <mxGeometry y="100" width="210" height="8" as="geometry" />
        </mxCell>
        <mxCell id="WVL8FD9VB9Q3fjMfFtZ8-34" value="+ start(): void&lt;br&gt;+ stop(): void&lt;br&gt;+ drive(destination: Location): void&amp;nbsp;" style="text;strokeColor=none;fillColor=none;align=left;verticalAlign=top;spacingLeft=4;spacingRight=4;overflow=hidden;rotatable=0;points=[[0,0.5],[1,0.5]];portConstraint=eastwest;whiteSpace=wrap;html=1;" vertex="1" parent="WVL8FD9VB9Q3fjMfFtZ8-31">
          <mxGeometry y="108" width="210" height="52" as="geometry" />
        </mxCell>
        <mxCell id="WVL8FD9VB9Q3fjMfFtZ8-37" value="Relation" style="endArrow=open;html=1;endSize=12;startArrow=diamondThin;startSize=14;startFill=0;edgeStyle=orthogonalEdgeStyle;rounded=0;" edge="1" parent="1">
          <mxGeometry relative="1" as="geometry">
            <mxPoint x="260" y="519.69" as="sourcePoint" />
            <mxPoint x="420" y="519.69" as="targetPoint" />
          </mxGeometry>
        </mxCell>
        <mxCell id="WVL8FD9VB9Q3fjMfFtZ8-38" value="1" style="edgeLabel;resizable=0;html=1;align=left;verticalAlign=top;" connectable="0" vertex="1" parent="WVL8FD9VB9Q3fjMfFtZ8-37">
          <mxGeometry x="-1" relative="1" as="geometry" />
        </mxCell>
        <mxCell id="WVL8FD9VB9Q3fjMfFtZ8-39" value="1" style="edgeLabel;resizable=0;html=1;align=right;verticalAlign=top;" connectable="0" vertex="1" parent="WVL8FD9VB9Q3fjMfFtZ8-37">
          <mxGeometry x="1" relative="1" as="geometry" />
        </mxCell>
        <mxCell id="WVL8FD9VB9Q3fjMfFtZ8-40" value="Location" style="swimlane;fontStyle=1;align=center;verticalAlign=top;childLayout=stackLayout;horizontal=1;startSize=26;horizontalStack=0;resizeParent=1;resizeParentMax=0;resizeLast=0;collapsible=1;marginBottom=0;whiteSpace=wrap;html=1;" vertex="1" parent="1">
          <mxGeometry x="420" y="740" width="210" height="130" as="geometry" />
        </mxCell>
        <mxCell id="WVL8FD9VB9Q3fjMfFtZ8-41" value="-name: String&lt;div&gt;-coordinates: Coordinates&lt;/div&gt;" style="text;strokeColor=none;fillColor=none;align=left;verticalAlign=top;spacingLeft=4;spacingRight=4;overflow=hidden;rotatable=0;points=[[0,0.5],[1,0.5]];portConstraint=eastwest;whiteSpace=wrap;html=1;" vertex="1" parent="WVL8FD9VB9Q3fjMfFtZ8-40">
          <mxGeometry y="26" width="210" height="54" as="geometry" />
        </mxCell>
        <mxCell id="WVL8FD9VB9Q3fjMfFtZ8-42" value="" style="line;strokeWidth=1;fillColor=none;align=left;verticalAlign=middle;spacingTop=-1;spacingLeft=3;spacingRight=3;rotatable=0;labelPosition=right;points=[];portConstraint=eastwest;strokeColor=inherit;" vertex="1" parent="WVL8FD9VB9Q3fjMfFtZ8-40">
          <mxGeometry y="80" width="210" height="8" as="geometry" />
        </mxCell>
        <mxCell id="WVL8FD9VB9Q3fjMfFtZ8-43" value="+ getCoordinates(): Coordinates" style="text;strokeColor=none;fillColor=none;align=left;verticalAlign=top;spacingLeft=4;spacingRight=4;overflow=hidden;rotatable=0;points=[[0,0.5],[1,0.5]];portConstraint=eastwest;whiteSpace=wrap;html=1;" vertex="1" parent="WVL8FD9VB9Q3fjMfFtZ8-40">
          <mxGeometry y="88" width="210" height="42" as="geometry" />
        </mxCell>
        <mxCell id="WVL8FD9VB9Q3fjMfFtZ8-44" value="Relation" style="endArrow=open;html=1;endSize=12;startArrow=diamondThin;startSize=14;startFill=0;edgeStyle=orthogonalEdgeStyle;rounded=0;exitX=0.43;exitY=1.117;exitDx=0;exitDy=0;exitPerimeter=0;entryX=0.427;entryY=0.037;entryDx=0;entryDy=0;entryPerimeter=0;" edge="1" parent="1" source="WVL8FD9VB9Q3fjMfFtZ8-34" target="WVL8FD9VB9Q3fjMfFtZ8-40">
          <mxGeometry relative="1" as="geometry">
            <mxPoint x="510" y="630" as="sourcePoint" />
            <mxPoint x="780" y="690" as="targetPoint" />
            <Array as="points">
              <mxPoint x="510" y="630" />
              <mxPoint x="510" y="630" />
            </Array>
          </mxGeometry>
        </mxCell>
        <mxCell id="WVL8FD9VB9Q3fjMfFtZ8-45" value="1" style="edgeLabel;resizable=0;html=1;align=left;verticalAlign=top;" connectable="0" vertex="1" parent="WVL8FD9VB9Q3fjMfFtZ8-44">
          <mxGeometry x="-1" relative="1" as="geometry" />
        </mxCell>
        <mxCell id="WVL8FD9VB9Q3fjMfFtZ8-46" value="*" style="edgeLabel;resizable=0;html=1;align=right;verticalAlign=top;" connectable="0" vertex="1" parent="WVL8FD9VB9Q3fjMfFtZ8-44">
          <mxGeometry x="1" relative="1" as="geometry" />
        </mxCell>
        <mxCell id="WVL8FD9VB9Q3fjMfFtZ8-53" value="Route" style="swimlane;fontStyle=1;align=center;verticalAlign=top;childLayout=stackLayout;horizontal=1;startSize=26;horizontalStack=0;resizeParent=1;resizeParentMax=0;resizeLast=0;collapsible=1;marginBottom=0;whiteSpace=wrap;html=1;" vertex="1" parent="1">
          <mxGeometry x="827" y="720" width="210" height="140" as="geometry" />
        </mxCell>
        <mxCell id="WVL8FD9VB9Q3fjMfFtZ8-54" value="- startLocation: Location&amp;nbsp;&lt;div&gt;- endLocation: Location&amp;nbsp;&lt;/div&gt;&lt;div&gt;- waypoints: List&amp;lt;Location&amp;gt;&lt;/div&gt;" style="text;strokeColor=none;fillColor=none;align=left;verticalAlign=top;spacingLeft=4;spacingRight=4;overflow=hidden;rotatable=0;points=[[0,0.5],[1,0.5]];portConstraint=eastwest;whiteSpace=wrap;html=1;" vertex="1" parent="WVL8FD9VB9Q3fjMfFtZ8-53">
          <mxGeometry y="26" width="210" height="54" as="geometry" />
        </mxCell>
        <mxCell id="WVL8FD9VB9Q3fjMfFtZ8-55" value="" style="line;strokeWidth=1;fillColor=none;align=left;verticalAlign=middle;spacingTop=-1;spacingLeft=3;spacingRight=3;rotatable=0;labelPosition=right;points=[];portConstraint=eastwest;strokeColor=inherit;" vertex="1" parent="WVL8FD9VB9Q3fjMfFtZ8-53">
          <mxGeometry y="80" width="210" height="8" as="geometry" />
        </mxCell>
        <mxCell id="WVL8FD9VB9Q3fjMfFtZ8-56" value="+ calculateRoute(): List&amp;lt;Location&amp;gt;&amp;nbsp;&lt;div&gt;+ getDistance(): Float&amp;nbsp; &amp;nbsp;&lt;/div&gt;" style="text;strokeColor=none;fillColor=none;align=left;verticalAlign=top;spacingLeft=4;spacingRight=4;overflow=hidden;rotatable=0;points=[[0,0.5],[1,0.5]];portConstraint=eastwest;whiteSpace=wrap;html=1;" vertex="1" parent="WVL8FD9VB9Q3fjMfFtZ8-53">
          <mxGeometry y="88" width="210" height="52" as="geometry" />
        </mxCell>
        <mxCell id="WVL8FD9VB9Q3fjMfFtZ8-57" value="Relation" style="endArrow=open;html=1;endSize=12;startArrow=diamondThin;startSize=14;startFill=0;edgeStyle=orthogonalEdgeStyle;rounded=0;entryX=-0.011;entryY=0.057;entryDx=0;entryDy=0;entryPerimeter=0;" edge="1" parent="1" target="WVL8FD9VB9Q3fjMfFtZ8-56">
          <mxGeometry relative="1" as="geometry">
            <mxPoint x="630" y="811" as="sourcePoint" />
            <mxPoint x="790" y="803.89" as="targetPoint" />
            <Array as="points">
              <mxPoint x="660" y="811" />
              <mxPoint x="825" y="810" />
            </Array>
          </mxGeometry>
        </mxCell>
        <mxCell id="WVL8FD9VB9Q3fjMfFtZ8-58" value="*" style="edgeLabel;resizable=0;html=1;align=left;verticalAlign=top;" connectable="0" vertex="1" parent="WVL8FD9VB9Q3fjMfFtZ8-57">
          <mxGeometry x="-1" relative="1" as="geometry" />
        </mxCell>
        <mxCell id="WVL8FD9VB9Q3fjMfFtZ8-59" value="1" style="edgeLabel;resizable=0;html=1;align=right;verticalAlign=top;" connectable="0" vertex="1" parent="WVL8FD9VB9Q3fjMfFtZ8-57">
          <mxGeometry x="1" relative="1" as="geometry" />
        </mxCell>
        <mxCell id="WVL8FD9VB9Q3fjMfFtZ8-66" value="Relation" style="endArrow=open;html=1;endSize=12;startArrow=diamondThin;startSize=14;startFill=0;edgeStyle=orthogonalEdgeStyle;rounded=0;exitX=0.997;exitY=0.394;exitDx=0;exitDy=0;exitPerimeter=0;" edge="1" parent="1" source="WVL8FD9VB9Q3fjMfFtZ8-54">
          <mxGeometry relative="1" as="geometry">
            <mxPoint x="985" y="770" as="sourcePoint" />
            <mxPoint x="1145" y="770" as="targetPoint" />
          </mxGeometry>
        </mxCell>
        <mxCell id="WVL8FD9VB9Q3fjMfFtZ8-67" value="1" style="edgeLabel;resizable=0;html=1;align=left;verticalAlign=top;" connectable="0" vertex="1" parent="WVL8FD9VB9Q3fjMfFtZ8-66">
          <mxGeometry x="-1" relative="1" as="geometry" />
        </mxCell>
        <mxCell id="WVL8FD9VB9Q3fjMfFtZ8-68" value="1" style="edgeLabel;resizable=0;html=1;align=right;verticalAlign=top;" connectable="0" vertex="1" parent="WVL8FD9VB9Q3fjMfFtZ8-66">
          <mxGeometry x="1" relative="1" as="geometry" />
        </mxCell>
      </root>
    </mxGraphModel>
  </diagram>
</mxfile>
